<mxfile host="app.diagrams.net" modified="2021-10-22T03:20:33.723Z" agent="5.0 (Windows NT 10.0; Win64; x64) AppleWebKit/537.36 (KHTML, like Gecko) Chrome/94.0.4606.81 Safari/537.36" etag="zl_OKCuc9lYVMVAbFcSW" version="15.5.8" type="github">
  <diagram id="xXGxKdt8iOO0uVpK90PG" name="第 1 页">
    <mxGraphModel dx="2500" dy="896" grid="1" gridSize="10" guides="1" tooltips="1" connect="1" arrows="1" fold="1" page="1" pageScale="1" pageWidth="827" pageHeight="1169" math="0" shadow="0">
      <root>
        <mxCell id="0" />
        <mxCell id="1" parent="0" />
        <mxCell id="B2yYNU26rWNEv5t306j0-44" value="" style="whiteSpace=wrap;html=1;aspect=fixed;dashed=1;" parent="1" vertex="1">
          <mxGeometry x="200" y="630" width="190" height="190" as="geometry" />
        </mxCell>
        <mxCell id="B2yYNU26rWNEv5t306j0-61" style="edgeStyle=orthogonalEdgeStyle;rounded=0;orthogonalLoop=1;jettySize=auto;html=1;" parent="1" source="CAjxfT5lyho2YDszAyyN-2" target="B2yYNU26rWNEv5t306j0-60" edge="1">
          <mxGeometry relative="1" as="geometry" />
        </mxCell>
        <mxCell id="CAjxfT5lyho2YDszAyyN-2" value="Actor" style="shape=umlActor;verticalLabelPosition=bottom;verticalAlign=top;html=1;outlineConnect=0;" parent="1" vertex="1">
          <mxGeometry x="125" y="30" width="30" height="60" as="geometry" />
        </mxCell>
        <mxCell id="B2yYNU26rWNEv5t306j0-2" style="edgeStyle=orthogonalEdgeStyle;rounded=0;orthogonalLoop=1;jettySize=auto;html=1;" parent="1" source="B2yYNU26rWNEv5t306j0-1" edge="1">
          <mxGeometry relative="1" as="geometry">
            <mxPoint x="220" y="230" as="targetPoint" />
          </mxGeometry>
        </mxCell>
        <mxCell id="B2yYNU26rWNEv5t306j0-4" value="是" style="edgeLabel;html=1;align=center;verticalAlign=middle;resizable=0;points=[];" parent="B2yYNU26rWNEv5t306j0-2" vertex="1" connectable="0">
          <mxGeometry x="-0.1333" y="1" relative="1" as="geometry">
            <mxPoint as="offset" />
          </mxGeometry>
        </mxCell>
        <mxCell id="B2yYNU26rWNEv5t306j0-59" value="" style="edgeStyle=orthogonalEdgeStyle;rounded=0;orthogonalLoop=1;jettySize=auto;html=1;" parent="1" source="B2yYNU26rWNEv5t306j0-1" target="B2yYNU26rWNEv5t306j0-58" edge="1">
          <mxGeometry relative="1" as="geometry" />
        </mxCell>
        <mxCell id="B2yYNU26rWNEv5t306j0-67" value="否" style="edgeLabel;html=1;align=center;verticalAlign=middle;resizable=0;points=[];" parent="B2yYNU26rWNEv5t306j0-59" vertex="1" connectable="0">
          <mxGeometry x="-0.505" y="1" relative="1" as="geometry">
            <mxPoint x="1" as="offset" />
          </mxGeometry>
        </mxCell>
        <mxCell id="B2yYNU26rWNEv5t306j0-1" value="是否数据地图建表" style="rhombus;whiteSpace=wrap;html=1;" parent="1" vertex="1">
          <mxGeometry x="370" y="110" width="107.5" height="80" as="geometry" />
        </mxCell>
        <mxCell id="B2yYNU26rWNEv5t306j0-32" style="edgeStyle=orthogonalEdgeStyle;rounded=0;orthogonalLoop=1;jettySize=auto;html=1;entryX=0.5;entryY=0;entryDx=0;entryDy=0;" parent="1" source="B2yYNU26rWNEv5t306j0-3" target="B2yYNU26rWNEv5t306j0-8" edge="1">
          <mxGeometry relative="1" as="geometry" />
        </mxCell>
        <mxCell id="B2yYNU26rWNEv5t306j0-3" value="模型开发页" style="rounded=0;whiteSpace=wrap;html=1;" parent="1" vertex="1">
          <mxGeometry x="175" y="230" width="90" height="40" as="geometry" />
        </mxCell>
        <mxCell id="B2yYNU26rWNEv5t306j0-10" value="" style="edgeStyle=orthogonalEdgeStyle;rounded=0;orthogonalLoop=1;jettySize=auto;html=1;" parent="1" source="B2yYNU26rWNEv5t306j0-8" edge="1">
          <mxGeometry relative="1" as="geometry">
            <mxPoint x="293.79999999999995" y="420" as="targetPoint" />
          </mxGeometry>
        </mxCell>
        <mxCell id="B2yYNU26rWNEv5t306j0-34" value="不通过" style="edgeLabel;html=1;align=center;verticalAlign=middle;resizable=0;points=[];" parent="B2yYNU26rWNEv5t306j0-10" vertex="1" connectable="0">
          <mxGeometry x="-0.0721" y="2" relative="1" as="geometry">
            <mxPoint as="offset" />
          </mxGeometry>
        </mxCell>
        <mxCell id="B2yYNU26rWNEv5t306j0-24" value="" style="edgeStyle=orthogonalEdgeStyle;rounded=0;orthogonalLoop=1;jettySize=auto;html=1;" parent="1" source="B2yYNU26rWNEv5t306j0-8" target="B2yYNU26rWNEv5t306j0-23" edge="1">
          <mxGeometry relative="1" as="geometry" />
        </mxCell>
        <mxCell id="B2yYNU26rWNEv5t306j0-33" value="通过" style="edgeLabel;html=1;align=center;verticalAlign=middle;resizable=0;points=[];" parent="B2yYNU26rWNEv5t306j0-24" vertex="1" connectable="0">
          <mxGeometry x="-0.1579" y="1" relative="1" as="geometry">
            <mxPoint as="offset" />
          </mxGeometry>
        </mxCell>
        <mxCell id="B2yYNU26rWNEv5t306j0-8" value="标准化校验" style="rhombus;whiteSpace=wrap;html=1;" parent="1" vertex="1">
          <mxGeometry x="180" y="300" width="80" height="80" as="geometry" />
        </mxCell>
        <mxCell id="B2yYNU26rWNEv5t306j0-26" value="" style="edgeStyle=orthogonalEdgeStyle;rounded=0;orthogonalLoop=1;jettySize=auto;html=1;" parent="1" source="B2yYNU26rWNEv5t306j0-23" target="B2yYNU26rWNEv5t306j0-25" edge="1">
          <mxGeometry relative="1" as="geometry">
            <Array as="points">
              <mxPoint x="-50" y="430" />
            </Array>
          </mxGeometry>
        </mxCell>
        <mxCell id="B2yYNU26rWNEv5t306j0-27" value="是" style="edgeLabel;html=1;align=center;verticalAlign=middle;resizable=0;points=[];" parent="B2yYNU26rWNEv5t306j0-26" vertex="1" connectable="0">
          <mxGeometry x="-0.24" y="-3" relative="1" as="geometry">
            <mxPoint as="offset" />
          </mxGeometry>
        </mxCell>
        <mxCell id="B2yYNU26rWNEv5t306j0-29" value="" style="edgeStyle=orthogonalEdgeStyle;rounded=0;orthogonalLoop=1;jettySize=auto;html=1;" parent="1" source="B2yYNU26rWNEv5t306j0-23" target="B2yYNU26rWNEv5t306j0-28" edge="1">
          <mxGeometry relative="1" as="geometry" />
        </mxCell>
        <mxCell id="B2yYNU26rWNEv5t306j0-31" value="否" style="edgeLabel;html=1;align=center;verticalAlign=middle;resizable=0;points=[];" parent="B2yYNU26rWNEv5t306j0-29" vertex="1" connectable="0">
          <mxGeometry x="-0.2588" relative="1" as="geometry">
            <mxPoint as="offset" />
          </mxGeometry>
        </mxCell>
        <mxCell id="B2yYNU26rWNEv5t306j0-23" value="是否新建表" style="rhombus;whiteSpace=wrap;html=1;" parent="1" vertex="1">
          <mxGeometry y="390" width="80" height="80" as="geometry" />
        </mxCell>
        <mxCell id="B2yYNU26rWNEv5t306j0-42" style="edgeStyle=orthogonalEdgeStyle;rounded=0;orthogonalLoop=1;jettySize=auto;html=1;entryX=0;entryY=0.75;entryDx=0;entryDy=0;exitX=0.5;exitY=1;exitDx=0;exitDy=0;" parent="1" source="B2yYNU26rWNEv5t306j0-25" target="B2yYNU26rWNEv5t306j0-39" edge="1">
          <mxGeometry relative="1" as="geometry" />
        </mxCell>
        <mxCell id="B2yYNU26rWNEv5t306j0-25" value="执行建表操作、并创建模型" style="whiteSpace=wrap;html=1;" parent="1" vertex="1">
          <mxGeometry x="-110" y="500" width="100" height="40" as="geometry" />
        </mxCell>
        <mxCell id="B2yYNU26rWNEv5t306j0-43" style="edgeStyle=orthogonalEdgeStyle;rounded=0;orthogonalLoop=1;jettySize=auto;html=1;entryX=0.5;entryY=0;entryDx=0;entryDy=0;" parent="1" source="B2yYNU26rWNEv5t306j0-28" target="B2yYNU26rWNEv5t306j0-39" edge="1">
          <mxGeometry relative="1" as="geometry" />
        </mxCell>
        <mxCell id="B2yYNU26rWNEv5t306j0-28" value="执行更新操作，并记录变更记录" style="whiteSpace=wrap;html=1;" parent="1" vertex="1">
          <mxGeometry x="90" y="500" width="100" height="40" as="geometry" />
        </mxCell>
        <mxCell id="B2yYNU26rWNEv5t306j0-37" value="" style="edgeStyle=orthogonalEdgeStyle;rounded=0;orthogonalLoop=1;jettySize=auto;html=1;" parent="1" source="B2yYNU26rWNEv5t306j0-35" target="B2yYNU26rWNEv5t306j0-36" edge="1">
          <mxGeometry relative="1" as="geometry" />
        </mxCell>
        <mxCell id="B2yYNU26rWNEv5t306j0-35" value="不标准字段明细" style="rounded=0;whiteSpace=wrap;html=1;" parent="1" vertex="1">
          <mxGeometry x="240" y="420" width="120" height="60" as="geometry" />
        </mxCell>
        <mxCell id="B2yYNU26rWNEv5t306j0-45" style="edgeStyle=orthogonalEdgeStyle;rounded=0;orthogonalLoop=1;jettySize=auto;html=1;entryX=0.5;entryY=1;entryDx=0;entryDy=0;" parent="1" source="B2yYNU26rWNEv5t306j0-36" target="B2yYNU26rWNEv5t306j0-48" edge="1">
          <mxGeometry relative="1" as="geometry">
            <mxPoint x="424" y="470" as="targetPoint" />
          </mxGeometry>
        </mxCell>
        <mxCell id="B2yYNU26rWNEv5t306j0-47" value="不申请" style="edgeLabel;html=1;align=center;verticalAlign=middle;resizable=0;points=[];" parent="B2yYNU26rWNEv5t306j0-45" vertex="1" connectable="0">
          <mxGeometry x="-0.5907" y="3" relative="1" as="geometry">
            <mxPoint as="offset" />
          </mxGeometry>
        </mxCell>
        <mxCell id="B2yYNU26rWNEv5t306j0-50" value="申请" style="edgeStyle=orthogonalEdgeStyle;rounded=0;orthogonalLoop=1;jettySize=auto;html=1;exitX=0.5;exitY=1;exitDx=0;exitDy=0;entryX=0.5;entryY=0;entryDx=0;entryDy=0;" parent="1" source="B2yYNU26rWNEv5t306j0-36" target="B2yYNU26rWNEv5t306j0-51" edge="1">
          <mxGeometry relative="1" as="geometry" />
        </mxCell>
        <mxCell id="B2yYNU26rWNEv5t306j0-36" value="是否申请字段标准化" style="rhombus;whiteSpace=wrap;html=1;rounded=0;" parent="1" vertex="1">
          <mxGeometry x="245" y="520" width="110" height="80" as="geometry" />
        </mxCell>
        <mxCell id="B2yYNU26rWNEv5t306j0-39" value="快乐使用" style="whiteSpace=wrap;html=1;" parent="1" vertex="1">
          <mxGeometry x="80" y="860" width="120" height="70" as="geometry" />
        </mxCell>
        <mxCell id="B2yYNU26rWNEv5t306j0-49" style="edgeStyle=orthogonalEdgeStyle;rounded=0;orthogonalLoop=1;jettySize=auto;html=1;entryX=0.5;entryY=1;entryDx=0;entryDy=0;" parent="1" source="B2yYNU26rWNEv5t306j0-48" target="B2yYNU26rWNEv5t306j0-1" edge="1">
          <mxGeometry relative="1" as="geometry" />
        </mxCell>
        <mxCell id="B2yYNU26rWNEv5t306j0-48" value="SQL准备" style="rounded=0;whiteSpace=wrap;html=1;" parent="1" vertex="1">
          <mxGeometry x="363.75" y="360" width="120" height="40" as="geometry" />
        </mxCell>
        <mxCell id="B2yYNU26rWNEv5t306j0-54" style="edgeStyle=orthogonalEdgeStyle;rounded=0;orthogonalLoop=1;jettySize=auto;html=1;entryX=0.5;entryY=0;entryDx=0;entryDy=0;" parent="1" source="B2yYNU26rWNEv5t306j0-51" target="B2yYNU26rWNEv5t306j0-52" edge="1">
          <mxGeometry relative="1" as="geometry" />
        </mxCell>
        <mxCell id="B2yYNU26rWNEv5t306j0-51" value="申请字段标准化/申请新的词根" style="rounded=0;whiteSpace=wrap;html=1;" parent="1" vertex="1">
          <mxGeometry x="240" y="650" width="120" height="60" as="geometry" />
        </mxCell>
        <mxCell id="B2yYNU26rWNEv5t306j0-55" style="edgeStyle=orthogonalEdgeStyle;rounded=0;orthogonalLoop=1;jettySize=auto;html=1;entryX=0.5;entryY=1;entryDx=0;entryDy=0;" parent="1" source="B2yYNU26rWNEv5t306j0-52" target="B2yYNU26rWNEv5t306j0-48" edge="1">
          <mxGeometry relative="1" as="geometry">
            <Array as="points">
              <mxPoint x="424" y="780" />
            </Array>
          </mxGeometry>
        </mxCell>
        <mxCell id="B2yYNU26rWNEv5t306j0-52" value="标准化审批" style="rounded=0;whiteSpace=wrap;html=1;" parent="1" vertex="1">
          <mxGeometry x="240" y="750" width="120" height="60" as="geometry" />
        </mxCell>
        <mxCell id="B2yYNU26rWNEv5t306j0-66" value="" style="edgeStyle=orthogonalEdgeStyle;rounded=0;orthogonalLoop=1;jettySize=auto;html=1;" parent="1" source="B2yYNU26rWNEv5t306j0-58" edge="1">
          <mxGeometry relative="1" as="geometry">
            <mxPoint x="679.5" y="440" as="targetPoint" />
          </mxGeometry>
        </mxCell>
        <mxCell id="B2yYNU26rWNEv5t306j0-58" value="BDP建表" style="whiteSpace=wrap;html=1;" parent="1" vertex="1">
          <mxGeometry x="629.5" y="230" width="100" height="40" as="geometry" />
        </mxCell>
        <mxCell id="B2yYNU26rWNEv5t306j0-62" style="edgeStyle=orthogonalEdgeStyle;rounded=0;orthogonalLoop=1;jettySize=auto;html=1;entryX=0.5;entryY=0;entryDx=0;entryDy=0;" parent="1" source="B2yYNU26rWNEv5t306j0-60" target="B2yYNU26rWNEv5t306j0-1" edge="1">
          <mxGeometry relative="1" as="geometry" />
        </mxCell>
        <mxCell id="B2yYNU26rWNEv5t306j0-60" value="SQL准备" style="rounded=0;whiteSpace=wrap;html=1;" parent="1" vertex="1">
          <mxGeometry x="363.75" y="40" width="120" height="40" as="geometry" />
        </mxCell>
        <mxCell id="B2yYNU26rWNEv5t306j0-69" style="edgeStyle=orthogonalEdgeStyle;rounded=0;orthogonalLoop=1;jettySize=auto;html=1;entryX=0.5;entryY=0;entryDx=0;entryDy=0;" parent="1" source="B2yYNU26rWNEv5t306j0-68" target="B2yYNU26rWNEv5t306j0-70" edge="1">
          <mxGeometry relative="1" as="geometry">
            <mxPoint x="679.5" y="500" as="targetPoint" />
          </mxGeometry>
        </mxCell>
        <mxCell id="B2yYNU26rWNEv5t306j0-68" value="模型定时接入" style="whiteSpace=wrap;html=1;" parent="1" vertex="1">
          <mxGeometry x="629.5" y="400" width="100" height="40" as="geometry" />
        </mxCell>
        <mxCell id="B2yYNU26rWNEv5t306j0-75" value="不通过" style="edgeStyle=orthogonalEdgeStyle;rounded=0;orthogonalLoop=1;jettySize=auto;html=1;entryX=1;entryY=0.5;entryDx=0;entryDy=0;" parent="1" source="B2yYNU26rWNEv5t306j0-70" target="B2yYNU26rWNEv5t306j0-74" edge="1">
          <mxGeometry relative="1" as="geometry">
            <mxPoint x="603.25" y="540" as="targetPoint" />
          </mxGeometry>
        </mxCell>
        <mxCell id="B2yYNU26rWNEv5t306j0-77" style="edgeStyle=orthogonalEdgeStyle;rounded=0;orthogonalLoop=1;jettySize=auto;html=1;entryX=1;entryY=0.657;entryDx=0;entryDy=0;entryPerimeter=0;exitX=0.5;exitY=1;exitDx=0;exitDy=0;" parent="1" source="B2yYNU26rWNEv5t306j0-70" target="B2yYNU26rWNEv5t306j0-39" edge="1">
          <mxGeometry relative="1" as="geometry">
            <Array as="points">
              <mxPoint x="680" y="906" />
            </Array>
          </mxGeometry>
        </mxCell>
        <mxCell id="B2yYNU26rWNEv5t306j0-78" value="通过" style="edgeLabel;html=1;align=center;verticalAlign=middle;resizable=0;points=[];" parent="B2yYNU26rWNEv5t306j0-77" vertex="1" connectable="0">
          <mxGeometry x="-0.6686" y="1" relative="1" as="geometry">
            <mxPoint as="offset" />
          </mxGeometry>
        </mxCell>
        <mxCell id="B2yYNU26rWNEv5t306j0-70" value="标准化校验" style="rhombus;whiteSpace=wrap;html=1;" parent="1" vertex="1">
          <mxGeometry x="639.5" y="545" width="80" height="80" as="geometry" />
        </mxCell>
        <mxCell id="B2yYNU26rWNEv5t306j0-76" style="edgeStyle=orthogonalEdgeStyle;rounded=0;orthogonalLoop=1;jettySize=auto;html=1;entryX=0.5;entryY=1;entryDx=0;entryDy=0;exitX=0.5;exitY=0;exitDx=0;exitDy=0;" parent="1" source="B2yYNU26rWNEv5t306j0-74" target="B2yYNU26rWNEv5t306j0-48" edge="1">
          <mxGeometry relative="1" as="geometry" />
        </mxCell>
        <mxCell id="B2yYNU26rWNEv5t306j0-74" value="通知用户" style="whiteSpace=wrap;html=1;" parent="1" vertex="1">
          <mxGeometry x="483.75" y="565" width="90" height="40" as="geometry" />
        </mxCell>
      </root>
    </mxGraphModel>
  </diagram>
</mxfile>
